<svg xmlns="http://www.w3.org/2000/svg" xmlns:xlink="http://www.w3.org/1999/xlink" contentStyleType="text/css" data-diagram-type="SEQUENCE" height="1102px" preserveAspectRatio="none" style="width:1832px;height:1102px;background:#FFFFFF;" version="1.1" viewBox="0 0 1832 1102" width="1832px" zoomAndPan="magnify"><defs/><g><rect fill="#ADD8E6" height="1090.6641" style="stroke:#181818;stroke-width:0.5;" width="532.9536" x="264.8174" y="6"/><text fill="#000000" font-family="sans-serif" font-size="13" font-weight="bold" lengthAdjust="spacing" textLength="54.7485" x="503.9199" y="18.0669">mw_log</text><rect fill="#90EE90" height="1090.6641" style="stroke:#181818;stroke-width:0.5;" width="172.5137" x="799.771" y="6"/><text fill="#000000" font-family="sans-serif" font-size="13" font-weight="bold" lengthAdjust="spacing" textLength="106.6152" x="832.7202" y="18.0669">mw_log_macro</text><rect fill="#FFB6C1" height="1090.6641" style="stroke:#181818;stroke-width:0.5;" width="276.2397" x="974.2847" y="6"/><text fill="#000000" font-family="sans-serif" font-size="13" font-weight="bold" lengthAdjust="spacing" textLength="138.3916" x="1043.2087" y="18.0669">mw_log_subscriber</text><rect fill="#FFFFE0" height="1090.6641" style="stroke:#181818;stroke-width:0.5;" width="451.3403" x="1327.8208" y="6"/><text fill="#000000" font-family="sans-serif" font-size="13" font-weight="bold" lengthAdjust="spacing" textLength="86.6646" x="1510.1587" y="18.0669">mw_log_fmt</text><rect fill="transparent" height="75.3984" style="stroke:#000000;stroke-width:1.5;" width="245.812" x="258.8174" y="102.5625"/><rect fill="transparent" height="75.3984" style="stroke:#000000;stroke-width:1.5;" width="439.2368" x="258.8174" y="191.9609"/><rect fill="transparent" height="691.7422" style="stroke:#000000;stroke-width:1.5;" width="1815.1611" x="10" y="339.625"/><rect fill="transparent" height="487.1406" style="stroke:#000000;stroke-width:1.5;" width="1556.3438" x="258.8174" y="537.2266"/><rect fill="transparent" height="311.8047" style="stroke:#000000;stroke-width:1.5;" width="704.5" x="1100.6611" y="677.5625"/><rect fill="transparent" height="280.6719" style="stroke:#000000;stroke-width:1.5;" width="684.5" x="1110.6611" y="701.6953"/><rect fill="transparent" height="148.4688" style="stroke:#000000;stroke-width:1.5;" width="463.3403" x="1321.8208" y="783.7656"/><g><title>User</title><rect fill="transparent" height="1005.9375" width="8" x="38.9551" y="56.4297"/><line style="stroke:#181818;stroke-width:0.5;stroke-dasharray:5.0,5.0;" x1="42" x2="42" y1="56.4297" y2="1062.3672"/></g><g><title>log!</title><rect fill="transparent" height="1005.9375" width="8" x="285.2944" y="56.4297"/><line style="stroke:#181818;stroke-width:0.5;stroke-dasharray:5.0,5.0;" x1="288.8174" x2="288.8174" y1="56.4297" y2="1062.3672"/></g><g><title>logger()</title><rect fill="transparent" height="1005.9375" width="8" x="421.7876" y="56.4297"/><line style="stroke:#181818;stroke-width:0.5;stroke-dasharray:5.0,5.0;" x1="425.0269" x2="425.0269" y1="56.4297" y2="1062.3672"/></g><g><title>__private_api::module_path()</title><rect fill="transparent" height="1005.9375" width="8" x="575.3013" y="56.4297"/><line style="stroke:#181818;stroke-width:0.5;stroke-dasharray:5.0,5.0;" x1="578.5483" x2="578.5483" y1="56.4297" y2="1062.3672"/></g><g><title>max_level()</title><rect fill="transparent" height="1005.9375" width="8" x="741.9126" y="56.4297"/><line style="stroke:#181818;stroke-width:0.5;stroke-dasharray:5.0,5.0;" x1="745.0542" x2="745.0542" y1="56.4297" y2="1062.3672"/></g><g><title>mw_log_format_args!</title><rect fill="transparent" height="1005.9375" width="8" x="882.0278" y="56.4297"/><line style="stroke:#181818;stroke-width:0.5;stroke-dasharray:5.0,5.0;" x1="885.771" x2="885.771" y1="56.4297" y2="1062.3672"/></g><g><title>Log impl</title><rect fill="transparent" height="1005.9375" width="8" x="1011.2876" y="56.4297"/><line style="stroke:#181818;stroke-width:0.5;stroke-dasharray:5.0,5.0;" x1="1015.2847" x2="1015.2847" y1="56.4297" y2="1062.3672"/></g><g><title>ScoreWrite impl</title><rect fill="transparent" height="1005.9375" width="8" x="1179.5928" y="56.4297"/><line style="stroke:#181818;stroke-width:0.5;stroke-dasharray:5.0,5.0;" x1="1182.6611" x2="1182.6611" y1="56.4297" y2="1062.3672"/></g><g><title>write</title><rect fill="transparent" height="1005.9375" width="8" x="1352.4199" y="56.4297"/><line style="stroke:#181818;stroke-width:0.5;stroke-dasharray:5.0,5.0;" x1="1355.8208" x2="1355.8208" y1="56.4297" y2="1062.3672"/></g><g><title>ScoreDisplay::fmt</title><rect fill="transparent" height="1005.9375" width="8" x="1558.8071" y="56.4297"/><line style="stroke:#181818;stroke-width:0.5;stroke-dasharray:5.0,5.0;" x1="1562.501" x2="1562.501" y1="56.4297" y2="1062.3672"/></g><g><title>ScoreDebug::fmt</title><rect fill="transparent" height="1005.9375" width="8" x="1704.6372" y="56.4297"/><line style="stroke:#181818;stroke-width:0.5;stroke-dasharray:5.0,5.0;" x1="1708.1133" x2="1708.1133" y1="56.4297" y2="1062.3672"/></g><rect fill="#E2E2F0" height="30.2969" rx="2.5" ry="2.5" style="stroke:#181818;stroke-width:0.5;" width="45.9102" x="20" y="25.1328"/><text fill="#000000" font-family="sans-serif" font-size="14" lengthAdjust="spacing" textLength="31.9102" x="27" y="45.1279">User</text><rect fill="#E2E2F0" height="30.2969" rx="2.5" ry="2.5" style="stroke:#181818;stroke-width:0.5;" width="45.9102" x="20" y="1061.3672"/><text fill="#000000" font-family="sans-serif" font-size="14" lengthAdjust="spacing" textLength="31.9102" x="27" y="1081.3623">User</text><rect fill="#E2E2F0" height="30.2969" rx="2.5" ry="2.5" style="stroke:#181818;stroke-width:0.5;" width="40.9541" x="268.8174" y="25.1328"/><text fill="#000000" font-family="sans-serif" font-size="14" lengthAdjust="spacing" textLength="26.9541" x="275.8174" y="45.1279">log!</text><rect fill="#E2E2F0" height="30.2969" rx="2.5" ry="2.5" style="stroke:#181818;stroke-width:0.5;" width="40.9541" x="268.8174" y="1061.3672"/><text fill="#000000" font-family="sans-serif" font-size="14" lengthAdjust="spacing" textLength="26.9541" x="275.8174" y="1081.3623">log!</text><rect fill="#E2E2F0" height="30.2969" rx="2.5" ry="2.5" style="stroke:#181818;stroke-width:0.5;" width="69.5215" x="391.0269" y="25.1328"/><text fill="#000000" font-family="sans-serif" font-size="14" lengthAdjust="spacing" textLength="55.5215" x="398.0269" y="45.1279">logger()</text><rect fill="#E2E2F0" height="30.2969" rx="2.5" ry="2.5" style="stroke:#181818;stroke-width:0.5;" width="69.5215" x="391.0269" y="1061.3672"/><text fill="#000000" font-family="sans-serif" font-size="14" lengthAdjust="spacing" textLength="55.5215" x="398.0269" y="1081.3623">logger()</text><rect fill="#E2E2F0" height="30.2969" rx="2.5" ry="2.5" style="stroke:#181818;stroke-width:0.5;" width="217.5059" x="470.5483" y="25.1328"/><text fill="#000000" font-family="sans-serif" font-size="14" lengthAdjust="spacing" textLength="203.5059" x="477.5483" y="45.1279">__private_api::module_path()</text><rect fill="#E2E2F0" height="30.2969" rx="2.5" ry="2.5" style="stroke:#181818;stroke-width:0.5;" width="217.5059" x="470.5483" y="1061.3672"/><text fill="#000000" font-family="sans-serif" font-size="14" lengthAdjust="spacing" textLength="203.5059" x="477.5483" y="1081.3623">__private_api::module_path()</text><rect fill="#E2E2F0" height="30.2969" rx="2.5" ry="2.5" style="stroke:#181818;stroke-width:0.5;" width="95.7168" x="698.0542" y="25.1328"/><text fill="#000000" font-family="sans-serif" font-size="14" lengthAdjust="spacing" textLength="81.7168" x="705.0542" y="45.1279">max_level()</text><rect fill="#E2E2F0" height="30.2969" rx="2.5" ry="2.5" style="stroke:#181818;stroke-width:0.5;" width="95.7168" x="698.0542" y="1061.3672"/><text fill="#000000" font-family="sans-serif" font-size="14" lengthAdjust="spacing" textLength="81.7168" x="705.0542" y="1081.3623">max_level()</text><rect fill="#E2E2F0" height="30.2969" rx="2.5" ry="2.5" style="stroke:#181818;stroke-width:0.5;" width="164.5137" x="803.771" y="25.1328"/><text fill="#000000" font-family="sans-serif" font-size="14" lengthAdjust="spacing" textLength="150.5137" x="810.771" y="45.1279">mw_log_format_args!</text><rect fill="#E2E2F0" height="30.2969" rx="2.5" ry="2.5" style="stroke:#181818;stroke-width:0.5;" width="164.5137" x="803.771" y="1061.3672"/><text fill="#000000" font-family="sans-serif" font-size="14" lengthAdjust="spacing" textLength="150.5137" x="810.771" y="1081.3623">mw_log_format_args!</text><rect fill="#E2E2F0" height="30.2969" rx="2.5" ry="2.5" style="stroke:#181818;stroke-width:0.5;" width="74.0059" x="978.2847" y="25.1328"/><text fill="#000000" font-family="sans-serif" font-size="14" lengthAdjust="spacing" textLength="60.0059" x="985.2847" y="45.1279">Log impl</text><rect fill="#E2E2F0" height="30.2969" rx="2.5" ry="2.5" style="stroke:#181818;stroke-width:0.5;" width="74.0059" x="978.2847" y="1061.3672"/><text fill="#000000" font-family="sans-serif" font-size="14" lengthAdjust="spacing" textLength="60.0059" x="985.2847" y="1081.3623">Log impl</text><rect fill="#E2E2F0" height="30.2969" rx="2.5" ry="2.5" style="stroke:#181818;stroke-width:0.5;" width="125.8633" x="1120.6611" y="25.1328"/><text fill="#000000" font-family="sans-serif" font-size="14" lengthAdjust="spacing" textLength="111.8633" x="1127.6611" y="45.1279">ScoreWrite impl</text><rect fill="#E2E2F0" height="30.2969" rx="2.5" ry="2.5" style="stroke:#181818;stroke-width:0.5;" width="125.8633" x="1120.6611" y="1061.3672"/><text fill="#000000" font-family="sans-serif" font-size="14" lengthAdjust="spacing" textLength="111.8633" x="1127.6611" y="1081.3623">ScoreWrite impl</text><rect fill="#E2E2F0" height="30.2969" rx="2.5" ry="2.5" style="stroke:#181818;stroke-width:0.5;" width="49.1982" x="1331.8208" y="25.1328"/><text fill="#000000" font-family="sans-serif" font-size="14" lengthAdjust="spacing" textLength="35.1982" x="1338.8208" y="45.1279">write</text><rect fill="#E2E2F0" height="30.2969" rx="2.5" ry="2.5" style="stroke:#181818;stroke-width:0.5;" width="49.1982" x="1331.8208" y="1061.3672"/><text fill="#000000" font-family="sans-serif" font-size="14" lengthAdjust="spacing" textLength="35.1982" x="1338.8208" y="1081.3623">write</text><rect fill="#E2E2F0" height="30.2969" rx="2.5" ry="2.5" style="stroke:#181818;stroke-width:0.5;" width="138.6123" x="1493.501" y="25.1328"/><text fill="#000000" font-family="sans-serif" font-size="14" lengthAdjust="spacing" textLength="124.6123" x="1500.501" y="45.1279">ScoreDisplay::fmt</text><rect fill="#E2E2F0" height="30.2969" rx="2.5" ry="2.5" style="stroke:#181818;stroke-width:0.5;" width="138.6123" x="1493.501" y="1061.3672"/><text fill="#000000" font-family="sans-serif" font-size="14" lengthAdjust="spacing" textLength="124.6123" x="1500.501" y="1081.3623">ScoreDisplay::fmt</text><rect fill="#E2E2F0" height="30.2969" rx="2.5" ry="2.5" style="stroke:#181818;stroke-width:0.5;" width="133.0479" x="1642.1133" y="25.1328"/><text fill="#000000" font-family="sans-serif" font-size="14" lengthAdjust="spacing" textLength="119.0479" x="1649.1133" y="45.1279">ScoreDebug::fmt</text><rect fill="#E2E2F0" height="30.2969" rx="2.5" ry="2.5" style="stroke:#181818;stroke-width:0.5;" width="133.0479" x="1642.1133" y="1061.3672"/><text fill="#000000" font-family="sans-serif" font-size="14" lengthAdjust="spacing" textLength="119.0479" x="1649.1133" y="1081.3623">ScoreDebug::fmt</text><polygon fill="#181818" points="277.2944,83.5625,287.2944,87.5625,277.2944,91.5625,281.2944,87.5625" style="stroke:#181818;stroke-width:1;"/><line style="stroke:#181818;stroke-width:1;" x1="42.9551" x2="283.2944" y1="87.5625" y2="87.5625"/><text fill="#000000" font-family="sans-serif" font-size="13" lengthAdjust="spacing" textLength="176.7124" x="49.9551" y="82.4966">Log message with log level</text><path d="M258.8174,102.5625 L323.2603,102.5625 L323.2603,109.6953 L313.2603,119.6953 L258.8174,119.6953 L258.8174,102.5625 " fill="#EEEEEE" style="stroke:#000000;stroke-width:1.5;"/><rect fill="transparent" height="75.3984" style="stroke:#000000;stroke-width:1.5;" width="245.812" x="258.8174" y="102.5625"/><text fill="#000000" font-family="sans-serif" font-size="13" font-weight="bold" lengthAdjust="spacing" textLength="19.4429" x="273.8174" y="115.6294">alt</text><text fill="#000000" font-family="sans-serif" font-size="11" font-weight="bold" lengthAdjust="spacing" textLength="161.3691" x="338.2603" y="114.7729">[no-user-provided-logger]</text><polygon fill="#181818" points="413.7876,136.8281,423.7876,140.8281,413.7876,144.8281,417.7876,140.8281" style="stroke:#181818;stroke-width:1;"/><line style="stroke:#181818;stroke-width:1;" x1="289.2944" x2="419.7876" y1="140.8281" y2="140.8281"/><text fill="#000000" font-family="sans-serif" font-size="13" lengthAdjust="spacing" textLength="112.4932" x="296.2944" y="135.7622">Get global logger</text><polygon fill="#181818" points="300.2944,165.9609,290.2944,169.9609,300.2944,173.9609,296.2944,169.9609" style="stroke:#181818;stroke-width:1;"/><line style="stroke:#181818;stroke-width:1;stroke-dasharray:2.0,2.0;" x1="294.2944" x2="424.7876" y1="169.9609" y2="169.9609"/><text fill="#000000" font-family="sans-serif" font-size="13" lengthAdjust="spacing" textLength="45.043" x="306.2944" y="164.895">Logger</text><path d="M258.8174,191.9609 L323.2603,191.9609 L323.2603,199.0938 L313.2603,209.0938 L258.8174,209.0938 L258.8174,191.9609 " fill="#EEEEEE" style="stroke:#000000;stroke-width:1.5;"/><rect fill="transparent" height="75.3984" style="stroke:#000000;stroke-width:1.5;" width="439.2368" x="258.8174" y="191.9609"/><text fill="#000000" font-family="sans-serif" font-size="13" font-weight="bold" lengthAdjust="spacing" textLength="19.4429" x="273.8174" y="205.0278">alt</text><text fill="#000000" font-family="sans-serif" font-size="11" font-weight="bold" lengthAdjust="spacing" textLength="168.3892" x="338.2603" y="204.1714">[no-user-provided-context]</text><polygon fill="#181818" points="567.3013,226.2266,577.3013,230.2266,567.3013,234.2266,571.3013,230.2266" style="stroke:#181818;stroke-width:1;"/><line style="stroke:#181818;stroke-width:1;" x1="289.2944" x2="573.3013" y1="230.2266" y2="230.2266"/><text fill="#000000" font-family="sans-serif" font-size="13" lengthAdjust="spacing" textLength="181.9365" x="296.2944" y="225.1606">Get module path as context</text><polygon fill="#181818" points="300.2944,255.3594,290.2944,259.3594,300.2944,263.3594,296.2944,259.3594" style="stroke:#181818;stroke-width:1;"/><line style="stroke:#181818;stroke-width:1;stroke-dasharray:2.0,2.0;" x1="294.2944" x2="578.3013" y1="259.3594" y2="259.3594"/><text fill="#000000" font-family="sans-serif" font-size="13" lengthAdjust="spacing" textLength="80.958" x="306.2944" y="254.2935">Module path</text><polygon fill="#181818" points="733.9126,291.4922,743.9126,295.4922,733.9126,299.4922,737.9126,295.4922" style="stroke:#181818;stroke-width:1;"/><line style="stroke:#181818;stroke-width:1;" x1="289.2944" x2="739.9126" y1="295.4922" y2="295.4922"/><text fill="#000000" font-family="sans-serif" font-size="13" lengthAdjust="spacing" textLength="114.6196" x="296.2944" y="290.4263">Get max log level</text><polygon fill="#181818" points="300.2944,320.625,290.2944,324.625,300.2944,328.625,296.2944,324.625" style="stroke:#181818;stroke-width:1;"/><line style="stroke:#181818;stroke-width:1;stroke-dasharray:2.0,2.0;" x1="294.2944" x2="744.9126" y1="324.625" y2="324.625"/><text fill="#000000" font-family="sans-serif" font-size="13" lengthAdjust="spacing" textLength="85.8711" x="306.2944" y="319.5591">Max log level</text><path d="M10,339.625 L74.4429,339.625 L74.4429,346.7578 L64.4429,356.7578 L10,356.7578 L10,339.625 " fill="#EEEEEE" style="stroke:#000000;stroke-width:1.5;"/><rect fill="transparent" height="691.7422" style="stroke:#000000;stroke-width:1.5;" width="1815.1611" x="10" y="339.625"/><text fill="#000000" font-family="sans-serif" font-size="13" font-weight="bold" lengthAdjust="spacing" textLength="19.4429" x="25" y="352.6919">alt</text><text fill="#000000" font-family="sans-serif" font-size="11" font-weight="bold" lengthAdjust="spacing" textLength="143.3169" x="89.4429" y="351.8354">[log-level-check-failed]</text><polygon fill="#181818" points="53.9551,373.8906,43.9551,377.8906,53.9551,381.8906,49.9551,377.8906" style="stroke:#181818;stroke-width:1;"/><line style="stroke:#181818;stroke-width:1;stroke-dasharray:2.0,2.0;" x1="47.9551" x2="288.2944" y1="377.8906" y2="377.8906"/><text fill="#000000" font-family="sans-serif" font-size="13" lengthAdjust="spacing" textLength="222.3394" x="59.9551" y="372.8247">Do not log, return control to caller</text><line style="stroke:#000000;stroke-width:1;stroke-dasharray:2.0,2.0;" x1="10" x2="1825.1611" y1="386.8906" y2="386.8906"/><text fill="#000000" font-family="sans-serif" font-size="11" font-weight="bold" lengthAdjust="spacing" textLength="151.959" x="15" y="397.1011">[log-level-check-passed]</text><polygon fill="#181818" points="874.0278,417.8281,884.0278,421.8281,874.0278,425.8281,878.0278,421.8281" style="stroke:#181818;stroke-width:1;"/><line style="stroke:#181818;stroke-width:1;" x1="289.2944" x2="880.0278" y1="421.8281" y2="421.8281"/><text fill="#000000" font-family="sans-serif" font-size="13" lengthAdjust="spacing" textLength="242.3091" x="296.2944" y="416.7622">Process format string and arguments</text><polygon fill="#181818" points="300.2944,446.9609,290.2944,450.9609,300.2944,454.9609,296.2944,450.9609" style="stroke:#181818;stroke-width:1;"/><line style="stroke:#181818;stroke-width:1;stroke-dasharray:2.0,2.0;" x1="294.2944" x2="885.0278" y1="450.9609" y2="450.9609"/><text fill="#000000" font-family="sans-serif" font-size="13" lengthAdjust="spacing" textLength="140.7847" x="306.2944" y="445.895">Processed arguments</text><polygon fill="#181818" points="1003.2876,476.0938,1013.2876,480.0938,1003.2876,484.0938,1007.2876,480.0938" style="stroke:#181818;stroke-width:1;"/><line style="stroke:#181818;stroke-width:1;" x1="289.2944" x2="1009.2876" y1="480.0938" y2="480.0938"/><text fill="#000000" font-family="sans-serif" font-size="13" lengthAdjust="spacing" textLength="168.7778" x="296.2944" y="475.0278">Log processed arguments</text><line style="stroke:#181818;stroke-width:1;" x1="1015.2876" x2="1057.2876" y1="509.2266" y2="509.2266"/><line style="stroke:#181818;stroke-width:1;" x1="1057.2876" x2="1057.2876" y1="509.2266" y2="522.2266"/><line style="stroke:#181818;stroke-width:1;" x1="1016.2876" x2="1057.2876" y1="522.2266" y2="522.2266"/><polygon fill="#181818" points="1026.2876,518.2266,1016.2876,522.2266,1026.2876,526.2266,1022.2876,522.2266" style="stroke:#181818;stroke-width:1;"/><text fill="#000000" font-family="sans-serif" font-size="13" lengthAdjust="spacing" textLength="154.3052" x="1022.2876" y="504.1606">Check if logger enabled</text><path d="M258.8174,537.2266 L323.2603,537.2266 L323.2603,544.3594 L313.2603,554.3594 L258.8174,554.3594 L258.8174,537.2266 " fill="#EEEEEE" style="stroke:#000000;stroke-width:1.5;"/><rect fill="transparent" height="487.1406" style="stroke:#000000;stroke-width:1.5;" width="1556.3438" x="258.8174" y="537.2266"/><text fill="#000000" font-family="sans-serif" font-size="13" font-weight="bold" lengthAdjust="spacing" textLength="19.4429" x="273.8174" y="550.2935">alt</text><text fill="#000000" font-family="sans-serif" font-size="11" font-weight="bold" lengthAdjust="spacing" textLength="129.4863" x="338.2603" y="549.437">[logger-not-enabled]</text><polygon fill="#181818" points="300.2944,556.3594,290.2944,560.3594,300.2944,564.3594,296.2944,560.3594" style="stroke:#181818;stroke-width:1;"/><line style="stroke:#181818;stroke-width:1;stroke-dasharray:2.0,2.0;" x1="294.2944" x2="1014.2876" y1="560.3594" y2="560.3594"/><line style="stroke:#000000;stroke-width:1;stroke-dasharray:2.0,2.0;" x1="258.8174" x2="1815.1611" y1="569.3594" y2="569.3594"/><text fill="#000000" font-family="sans-serif" font-size="11" font-weight="bold" lengthAdjust="spacing" textLength="104.2744" x="263.8174" y="579.5698">[logger-enabled]</text><polygon fill="#181818" points="1171.5928,600.2969,1181.5928,604.2969,1171.5928,608.2969,1175.5928,604.2969" style="stroke:#181818;stroke-width:1;"/><line style="stroke:#181818;stroke-width:1;" x1="1015.2876" x2="1177.5928" y1="604.2969" y2="604.2969"/><text fill="#000000" font-family="sans-serif" font-size="13" lengthAdjust="spacing" textLength="124.5347" x="1022.2876" y="599.231">Get writer instance</text><polygon fill="#181818" points="1026.2876,629.4297,1016.2876,633.4297,1026.2876,637.4297,1022.2876,633.4297" style="stroke:#181818;stroke-width:1;"/><line style="stroke:#181818;stroke-width:1;stroke-dasharray:2.0,2.0;" x1="1020.2876" x2="1182.5928" y1="633.4297" y2="633.4297"/><text fill="#000000" font-family="sans-serif" font-size="13" lengthAdjust="spacing" textLength="99.4551" x="1032.2876" y="628.3638">Writer instance</text><polygon fill="#181818" points="1344.4199,658.5625,1354.4199,662.5625,1344.4199,666.5625,1348.4199,662.5625" style="stroke:#181818;stroke-width:1;"/><line style="stroke:#181818;stroke-width:1;" x1="1015.2876" x2="1350.4199" y1="662.5625" y2="662.5625"/><text fill="#000000" font-family="sans-serif" font-size="13" lengthAdjust="spacing" textLength="208.8823" x="1022.2876" y="657.4966">Write arguments to given writer</text><path d="M1100.6611,677.5625 L1177.2852,677.5625 L1177.2852,684.6953 L1167.2852,694.6953 L1100.6611,694.6953 L1100.6611,677.5625 " fill="#EEEEEE" style="stroke:#000000;stroke-width:1.5;"/><rect fill="transparent" height="311.8047" style="stroke:#000000;stroke-width:1.5;" width="704.5" x="1100.6611" y="677.5625"/><text fill="#000000" font-family="sans-serif" font-size="13" font-weight="bold" lengthAdjust="spacing" textLength="31.624" x="1115.6611" y="690.6294">loop</text><text fill="#000000" font-family="sans-serif" font-size="11" font-weight="bold" lengthAdjust="spacing" textLength="214.3657" x="1192.2852" y="689.7729">[process-format-string-fragments]</text><path d="M1110.6611,701.6953 L1175.104,701.6953 L1175.104,708.8281 L1165.104,718.8281 L1110.6611,718.8281 L1110.6611,701.6953 " fill="#EEEEEE" style="stroke:#000000;stroke-width:1.5;"/><rect fill="transparent" height="280.6719" style="stroke:#000000;stroke-width:1.5;" width="684.5" x="1110.6611" y="701.6953"/><text fill="#000000" font-family="sans-serif" font-size="13" font-weight="bold" lengthAdjust="spacing" textLength="19.4429" x="1125.6611" y="714.7622">alt</text><text fill="#000000" font-family="sans-serif" font-size="11" font-weight="bold" lengthAdjust="spacing" textLength="61.8159" x="1190.104" y="713.9058">[is-literal]</text><polygon fill="#181818" points="1194.5928,735.9609,1184.5928,739.9609,1194.5928,743.9609,1190.5928,739.9609" style="stroke:#181818;stroke-width:1;"/><line style="stroke:#181818;stroke-width:1;" x1="1188.5928" x2="1355.4199" y1="739.9609" y2="739.9609"/><text fill="#000000" font-family="sans-serif" font-size="13" lengthAdjust="spacing" textLength="76.356" x="1200.5928" y="734.895">Write string</text><polygon fill="#181818" points="1344.4199,749.9609,1354.4199,753.9609,1344.4199,757.9609,1348.4199,753.9609" style="stroke:#181818;stroke-width:1;"/><line style="stroke:#181818;stroke-width:1;stroke-dasharray:2.0,2.0;" x1="1183.5928" x2="1350.4199" y1="753.9609" y2="753.9609"/><line style="stroke:#000000;stroke-width:1;stroke-dasharray:2.0,2.0;" x1="1110.6611" x2="1795.1611" y1="762.9609" y2="762.9609"/><text fill="#000000" font-family="sans-serif" font-size="11" font-weight="bold" lengthAdjust="spacing" textLength="97.9043" x="1115.6611" y="773.1714">[is-placeholder]</text><path d="M1321.8208,783.7656 L1386.2637,783.7656 L1386.2637,790.8984 L1376.2637,800.8984 L1321.8208,800.8984 L1321.8208,783.7656 " fill="#EEEEEE" style="stroke:#000000;stroke-width:1.5;"/><rect fill="transparent" height="148.4688" style="stroke:#000000;stroke-width:1.5;" width="463.3403" x="1321.8208" y="783.7656"/><text fill="#000000" font-family="sans-serif" font-size="13" font-weight="bold" lengthAdjust="spacing" textLength="19.4429" x="1336.8208" y="796.8325">alt</text><text fill="#000000" font-family="sans-serif" font-size="11" font-weight="bold" lengthAdjust="spacing" textLength="122.2407" x="1401.2637" y="795.9761">[display-requested]</text><polygon fill="#181818" points="1550.8071,818.0313,1560.8071,822.0313,1550.8071,826.0313,1554.8071,822.0313" style="stroke:#181818;stroke-width:1;"/><line style="stroke:#181818;stroke-width:1;" x1="1356.4199" x2="1556.8071" y1="822.0313" y2="822.0313"/><text fill="#000000" font-family="sans-serif" font-size="13" lengthAdjust="spacing" textLength="182.3872" x="1363.4199" y="816.9653">Process Display placeholder</text><polygon fill="#181818" points="1367.4199,847.1641,1357.4199,851.1641,1367.4199,855.1641,1363.4199,851.1641" style="stroke:#181818;stroke-width:1;"/><line style="stroke:#181818;stroke-width:1;stroke-dasharray:2.0,2.0;" x1="1361.4199" x2="1561.8071" y1="851.1641" y2="851.1641"/><text fill="#000000" font-family="sans-serif" font-size="13" lengthAdjust="spacing" textLength="146.5864" x="1373.4199" y="846.0981">Processed placeholder</text><line style="stroke:#000000;stroke-width:1;stroke-dasharray:2.0,2.0;" x1="1321.8208" x2="1785.1611" y1="860.1641" y2="860.1641"/><text fill="#000000" font-family="sans-serif" font-size="11" font-weight="bold" lengthAdjust="spacing" textLength="116.7246" x="1326.8208" y="870.3745">[debug-requested]</text><polygon fill="#181818" points="1696.6372,891.1016,1706.6372,895.1016,1696.6372,899.1016,1700.6372,895.1016" style="stroke:#181818;stroke-width:1;"/><line style="stroke:#181818;stroke-width:1;" x1="1356.4199" x2="1702.6372" y1="895.1016" y2="895.1016"/><text fill="#000000" font-family="sans-serif" font-size="13" lengthAdjust="spacing" textLength="193.4702" x="1363.4199" y="890.0356">Processed Debug placeholder</text><polygon fill="#181818" points="1367.4199,920.2344,1357.4199,924.2344,1367.4199,928.2344,1363.4199,924.2344" style="stroke:#181818;stroke-width:1;"/><line style="stroke:#181818;stroke-width:1;stroke-dasharray:2.0,2.0;" x1="1361.4199" x2="1707.6372" y1="924.2344" y2="924.2344"/><text fill="#000000" font-family="sans-serif" font-size="13" lengthAdjust="spacing" textLength="146.5864" x="1373.4199" y="919.1685">Processed placeholder</text><polygon fill="#181818" points="1194.5928,956.3672,1184.5928,960.3672,1194.5928,964.3672,1190.5928,960.3672" style="stroke:#181818;stroke-width:1;"/><line style="stroke:#181818;stroke-width:1;" x1="1188.5928" x2="1355.4199" y1="960.3672" y2="960.3672"/><text fill="#000000" font-family="sans-serif" font-size="13" lengthAdjust="spacing" textLength="148.8271" x="1200.5928" y="955.3013">Write placeholder data</text><polygon fill="#181818" points="1344.4199,970.3672,1354.4199,974.3672,1344.4199,978.3672,1348.4199,974.3672" style="stroke:#181818;stroke-width:1;"/><line style="stroke:#181818;stroke-width:1;stroke-dasharray:2.0,2.0;" x1="1183.5928" x2="1350.4199" y1="974.3672" y2="974.3672"/><polygon fill="#181818" points="1026.2876,998.3672,1016.2876,1002.3672,1026.2876,1006.3672,1022.2876,1002.3672" style="stroke:#181818;stroke-width:1;"/><line style="stroke:#181818;stroke-width:1;stroke-dasharray:2.0,2.0;" x1="1020.2876" x2="1355.4199" y1="1002.3672" y2="1002.3672"/><polygon fill="#181818" points="300.2944,1012.3672,290.2944,1016.3672,300.2944,1020.3672,296.2944,1016.3672" style="stroke:#181818;stroke-width:1;"/><line style="stroke:#181818;stroke-width:1;stroke-dasharray:2.0,2.0;" x1="294.2944" x2="1014.2876" y1="1016.3672" y2="1016.3672"/><polygon fill="#181818" points="53.9551,1040.3672,43.9551,1044.3672,53.9551,1048.3672,49.9551,1044.3672" style="stroke:#181818;stroke-width:1;"/><line style="stroke:#181818;stroke-width:1;stroke-dasharray:2.0,2.0;" x1="47.9551" x2="288.2944" y1="1044.3672" y2="1044.3672"/><!--SRC=[dLJBRjim4BpxAxRkfGNA7z31XpP0BYaGe2Y2dWHAMij4A58bATlz-_9faP9jrDKbuN9cTdUutf4gmresKc5W-rEZsWBLG5iZrMRJo3DiXrFDPR-5Zo-iFvYlVCBDc9FivGTFil_K0ssLNDttg3vzJXXxgFUYnDJrgDYH6gpfoAfgaDt4iHwfEKHU5bcH1tgkEHwH9smwEoIA3cmRHI-XojJHiq9SAWRONgg1cfggNeSEr_7h-dfgTAjOuzmCILwPU2zplCWUs33op9OIyAEL2jyKCpZZJkwehYVT3oPb-uMSorCfvwcpoCf5d-w9wP7JFrNbnIpM_gsx4Bm6nsRg5s0NcWlqWmHaDmy7LE1Q7r1hsYESc3cuI_0lPWdSW91aifD8HYMFhCEEH7l0VhDE40tJP4MVqK3FPKCvbF288EiY-c3bZQIj50RFPfsrdCMOEWJ11PqLENc1NnRoVMQ6QifasJ2dLFISELO0Lje5rFTfZyGVINl0zftiAUFOBRkqEk7fAdYIrXlF-m8ApQI4xqv93aP2IpctDcwGQrnfZrJhjVRkok_8vdbLihL30I4AsYWcUg1saYnW6b0O7UnSavTjHodCgRUc9yxZU8VYK3d-csiEs3v5KD36UUZnqMCR9zOsakuWVaakhpWGauEEUOkrYniWJa8yCA4D5IrUu35EygBV5jXRsc7EmjwvME5UkcT756a3PMmv9lD8U1CIdexi5UtdPqkVyuTfmfqCvSNLfNG_obclePeWUvqHchrijlpU-sepsXtMua7oBgw6PL5npH65loVK9dF_LdtPSipcD-vGk9VFVJcRbExFytjFn3Vcz-sZDJjEaSOlyd-hs2F_hrxHFVBScHHqrD377pxBvnVhEkdb1tB_zvaKbkivRSdDNm00]--></g></svg>