<svg xmlns="http://www.w3.org/2000/svg" xmlns:xlink="http://www.w3.org/1999/xlink" contentStyleType="text/css" data-diagram-type="SEQUENCE" height="196px" preserveAspectRatio="none" style="width:412px;height:196px;background:#FFFFFF;" version="1.1" viewBox="0 0 412 196" width="412px" zoomAndPan="magnify"><defs/><g><g><title>User</title><rect fill="transparent" height="92.2656" width="8" x="23.9551" y="52.5938"/><line style="stroke:#181818;stroke-width:0.5;stroke-dasharray:5.0,5.0;" x1="27" x2="27" y1="52.5938" y2="144.8594"/></g><g><title>Log to level macro</title><rect fill="transparent" height="92.2656" width="8" x="133.9595" y="52.5938"/><line style="stroke:#181818;stroke-width:0.5;stroke-dasharray:5.0,5.0;" x1="137.8677" x2="137.8677" y1="52.5938" y2="144.8594"/></g><g><title>`log!` macro</title><rect fill="transparent" height="92.2656" width="8" x="350.6489" y="52.5938"/><line style="stroke:#181818;stroke-width:0.5;stroke-dasharray:5.0,5.0;" x1="353.8291" x2="353.8291" y1="52.5938" y2="144.8594"/></g><rect fill="#E2E2F0" height="30.2969" rx="2.5" ry="2.5" style="stroke:#181818;stroke-width:0.5;" width="45.9102" x="5" y="21.2969"/><text fill="#000000" font-family="sans-serif" font-size="14" lengthAdjust="spacing" textLength="31.9102" x="12" y="41.292">User</text><rect fill="#E2E2F0" height="30.2969" rx="2.5" ry="2.5" style="stroke:#181818;stroke-width:0.5;" width="45.9102" x="5" y="143.8594"/><text fill="#000000" font-family="sans-serif" font-size="14" lengthAdjust="spacing" textLength="31.9102" x="12" y="163.8545">User</text><rect fill="#E2E2F0" height="46.5938" rx="2.5" ry="2.5" style="stroke:#181818;stroke-width:0.5;" width="144.1836" x="65.8677" y="5"/><text fill="#000000" font-family="sans-serif" font-size="14" lengthAdjust="spacing" textLength="130.1836" x="72.8677" y="24.9951">Log to level macro</text><text fill="#000000" font-family="sans-serif" font-size="14" lengthAdjust="spacing" textLength="100.2832" x="87.8179" y="41.292">(e.g., `error!`)</text><rect fill="#E2E2F0" height="46.5938" rx="2.5" ry="2.5" style="stroke:#181818;stroke-width:0.5;" width="144.1836" x="65.8677" y="143.8594"/><text fill="#000000" font-family="sans-serif" font-size="14" lengthAdjust="spacing" textLength="130.1836" x="72.8677" y="163.8545">Log to level macro</text><text fill="#000000" font-family="sans-serif" font-size="14" lengthAdjust="spacing" textLength="100.2832" x="87.8179" y="180.1514">(e.g., `error!`)</text><rect fill="#E2E2F0" height="30.2969" rx="2.5" ry="2.5" style="stroke:#181818;stroke-width:0.5;" width="103.6396" x="302.8291" y="21.2969"/><text fill="#000000" font-family="sans-serif" font-size="14" lengthAdjust="spacing" textLength="89.6396" x="309.8291" y="41.292">`log!` macro</text><rect fill="#E2E2F0" height="30.2969" rx="2.5" ry="2.5" style="stroke:#181818;stroke-width:0.5;" width="103.6396" x="302.8291" y="143.8594"/><text fill="#000000" font-family="sans-serif" font-size="14" lengthAdjust="spacing" textLength="89.6396" x="309.8291" y="163.8545">`log!` macro</text><polygon fill="#181818" points="125.9595,79.7266,135.9595,83.7266,125.9595,87.7266,129.9595,83.7266" style="stroke:#181818;stroke-width:1;"/><line style="stroke:#181818;stroke-width:1;" x1="27.9551" x2="131.9595" y1="83.7266" y2="83.7266"/><text fill="#000000" font-family="sans-serif" font-size="13" lengthAdjust="spacing" textLength="86.0044" x="34.9551" y="78.6606">Log message</text><polygon fill="#181818" points="342.6489,108.8594,352.6489,112.8594,342.6489,116.8594,346.6489,112.8594" style="stroke:#181818;stroke-width:1;"/><line style="stroke:#181818;stroke-width:1;" x1="137.9595" x2="348.6489" y1="112.8594" y2="112.8594"/><text fill="#000000" font-family="sans-serif" font-size="13" lengthAdjust="spacing" textLength="192.6895" x="144.9595" y="107.7935">Log message with given level</text><polygon fill="#181818" points="38.9551,122.8594,28.9551,126.8594,38.9551,130.8594,34.9551,126.8594" style="stroke:#181818;stroke-width:1;"/><line style="stroke:#181818;stroke-width:1;stroke-dasharray:2.0,2.0;" x1="32.9551" x2="353.6489" y1="126.8594" y2="126.8594"/><!--SRC=[ROzD2iCW48NtdcAILGjD3j15Jz1jTmKL6QnW71c7vFfDjVG7NC_tlJSlMvRWGhP9OBmLv15i0Uk4MENVsvKy24745ICirZ7Tqm5dFv_083FnO8xLZUIraAwWhk1_aDc1mRI8Zz0uLNjXkdH2u0ol5nOinNfK7U2jTMZOWZp0XnLJ6w2-uBHhRUuJ]--></g></svg>