<svg xmlns="http://www.w3.org/2000/svg" xmlns:xlink="http://www.w3.org/1999/xlink" contentStyleType="text/css" data-diagram-type="CLASS" height="799px" preserveAspectRatio="none" style="width:1922px;height:799px;background:#FFFFFF;" version="1.1" viewBox="0 0 1922 799" width="1922px" zoomAndPan="magnify"><defs/><g><!--cluster log--><g id="cluster_log"><path d="M8.5,6 L33.9385,6 A3.75,3.75 0 0 1 36.4385,8.5 L43.4385,28.2969 L1912.5,28.2969 A2.5,2.5 0 0 1 1915,30.7969 L1915,789.5 A2.5,2.5 0 0 1 1912.5,792 L8.5,792 A2.5,2.5 0 0 1 6,789.5 L6,8.5 A2.5,2.5 0 0 1 8.5,6 " fill="transparent" style="stroke:#000000;stroke-width:1.5;"/><line style="stroke:#000000;stroke-width:1.5;" x1="6" x2="43.4385" y1="28.2969" y2="28.2969"/><text fill="#000000" font-family="sans-serif" font-size="14" font-weight="bold" lengthAdjust="spacing" textLength="24.4385" x="10" y="20.9951">log</text><text fill="#000000" font-family="sans-serif" font-size="14" font-style="italic" lengthAdjust="spacing" textLength="96.4824" x="916.2588" y="43.292">&#171;component&#187;</text></g><!--cluster mw_log_fmt--><g id="cluster_mw_log_fmt"><path d="M835.5,390.5 L929.8311,390.5 A3.75,3.75 0 0 1 932.3311,393 L939.3311,412.7969 L1880.5,412.7969 A2.5,2.5 0 0 1 1883,415.2969 L1883,757.5 A2.5,2.5 0 0 1 1880.5,760 L835.5,760 A2.5,2.5 0 0 1 833,757.5 L833,393 A2.5,2.5 0 0 1 835.5,390.5 " fill="transparent" style="stroke:#000000;stroke-width:1.5;"/><line style="stroke:#000000;stroke-width:1.5;" x1="833" x2="939.3311" y1="412.7969" y2="412.7969"/><text fill="#000000" font-family="sans-serif" font-size="14" font-weight="bold" lengthAdjust="spacing" textLength="93.3311" x="837" y="405.4951">mw_log_fmt</text></g><!--class Level--><g id="elem_Level"><rect codeLine="3" fill="#F1F1F1" height="154.0469" id="Level" rx="2.5" ry="2.5" style="stroke:#181818;stroke-width:0.5;" width="80.2012" x="22" y="393"/><ellipse cx="37" cy="413.1328" fill="#EB937F" rx="11" ry="11" style="stroke:#181818;stroke-width:1;"/><path d="M41.1094,419.1328 L33.3906,419.1328 L33.3906,406.7422 L41.1094,406.7422 L41.1094,408.8984 L35.8438,408.8984 L35.8438,411.5703 L40.6094,411.5703 L40.6094,413.7266 L35.8438,413.7266 L35.8438,416.9766 L41.1094,416.9766 L41.1094,419.1328 Z " fill="#000000"/><text fill="#000000" font-family="sans-serif" font-size="12" font-style="italic" lengthAdjust="spacing" textLength="49.0957" x="50.5527" y="409.1387">&#171;enum&#187;</text><ellipse cx="56" cy="419.6172" fill="#84BE84" rx="3" ry="3" style="stroke:#038048;stroke-width:1;"/><text fill="#000000" font-family="sans-serif" font-size="14" lengthAdjust="spacing" textLength="37.2012" x="62" y="424.9639">Level</text><line style="stroke:#181818;stroke-width:0.5;" x1="23" x2="101.2012" y1="433.2656" y2="433.2656"/><text fill="#000000" font-family="sans-serif" font-size="14" lengthAdjust="spacing" textLength="34.5898" x="28" y="450.2607">Fatal</text><text fill="#000000" font-family="sans-serif" font-size="14" lengthAdjust="spacing" textLength="34.6787" x="28" y="466.5576">Error</text><text fill="#000000" font-family="sans-serif" font-size="14" lengthAdjust="spacing" textLength="37.0508" x="28" y="482.8545">Warn</text><text fill="#000000" font-family="sans-serif" font-size="14" lengthAdjust="spacing" textLength="26.4961" x="28" y="499.1514">Info</text><text fill="#000000" font-family="sans-serif" font-size="14" lengthAdjust="spacing" textLength="46.04" x="28" y="515.4482">Debug</text><text fill="#000000" font-family="sans-serif" font-size="14" lengthAdjust="spacing" textLength="39.1973" x="28" y="531.7451">Trace</text><line style="stroke:#181818;stroke-width:0.5;" x1="23" x2="101.2012" y1="539.0469" y2="539.0469"/></g><!--class LevelFilter--><g id="elem_LevelFilter"><rect codeLine="12" fill="#F1F1F1" height="170.3438" id="LevelFilter" rx="2.5" ry="2.5" style="stroke:#181818;stroke-width:0.5;" width="115.8916" x="137" y="385"/><ellipse cx="152" cy="405.1328" fill="#EB937F" rx="11" ry="11" style="stroke:#181818;stroke-width:1;"/><path d="M156.1094,411.1328 L148.3906,411.1328 L148.3906,398.7422 L156.1094,398.7422 L156.1094,400.8984 L150.8438,400.8984 L150.8438,403.5703 L155.6094,403.5703 L155.6094,405.7266 L150.8438,405.7266 L150.8438,408.9766 L156.1094,408.9766 L156.1094,411.1328 Z " fill="#000000"/><text fill="#000000" font-family="sans-serif" font-size="12" font-style="italic" lengthAdjust="spacing" textLength="49.0957" x="183.3979" y="401.1387">&#171;enum&#187;</text><ellipse cx="171" cy="411.6172" fill="#84BE84" rx="3" ry="3" style="stroke:#038048;stroke-width:1;"/><text fill="#000000" font-family="sans-serif" font-size="14" lengthAdjust="spacing" textLength="72.8916" x="177" y="416.9639">LevelFilter</text><line style="stroke:#181818;stroke-width:0.5;" x1="138" x2="251.8916" y1="425.2656" y2="425.2656"/><text fill="#000000" font-family="sans-serif" font-size="14" lengthAdjust="spacing" textLength="20.877" x="143" y="442.2607">Off</text><text fill="#000000" font-family="sans-serif" font-size="14" lengthAdjust="spacing" textLength="34.5898" x="143" y="458.5576">Fatal</text><text fill="#000000" font-family="sans-serif" font-size="14" lengthAdjust="spacing" textLength="34.6787" x="143" y="474.8545">Error</text><text fill="#000000" font-family="sans-serif" font-size="14" lengthAdjust="spacing" textLength="37.0508" x="143" y="491.1514">Warn</text><text fill="#000000" font-family="sans-serif" font-size="14" lengthAdjust="spacing" textLength="26.4961" x="143" y="507.4482">Info</text><text fill="#000000" font-family="sans-serif" font-size="14" lengthAdjust="spacing" textLength="46.04" x="143" y="523.7451">Debug</text><text fill="#000000" font-family="sans-serif" font-size="14" lengthAdjust="spacing" textLength="39.1973" x="143" y="540.042">Trace</text><line style="stroke:#181818;stroke-width:0.5;" x1="138" x2="251.8916" y1="547.3438" y2="547.3438"/></g><!--class mw_log--><g id="elem_mw_log"><rect codeLine="22" fill="#F1F1F1" height="268.125" id="mw_log" rx="2.5" ry="2.5" style="stroke:#181818;stroke-width:0.5;" width="484.0488" x="163" y="57"/><ellipse cx="372.8828" cy="77.1328" fill="#ADD1B2" rx="11" ry="11" style="stroke:#181818;stroke-width:1;"/><path d="M375.8516,82.7734 Q375.2734,83.0703 374.6328,83.2109 Q373.9922,83.3672 373.2891,83.3672 Q370.7891,83.3672 369.4609,81.7266 Q368.1484,80.0703 368.1484,76.9453 Q368.1484,73.8203 369.4609,72.1641 Q370.7891,70.5078 373.2891,70.5078 Q373.9922,70.5078 374.6328,70.6641 Q375.2891,70.8203 375.8516,71.1172 L375.8516,73.8359 Q375.2266,73.2578 374.6328,72.9922 Q374.0391,72.7109 373.4141,72.7109 Q372.0703,72.7109 371.3828,73.7891 Q370.6953,74.8516 370.6953,76.9453 Q370.6953,79.0391 371.3828,80.1172 Q372.0703,81.1797 373.4141,81.1797 Q374.0391,81.1797 374.6328,80.9141 Q375.2266,80.6328 375.8516,80.0547 L375.8516,82.7734 Z " fill="#000000"/><text fill="#000000" font-family="sans-serif" font-size="12" font-style="italic" lengthAdjust="spacing" textLength="59.7832" x="391.3828" y="73.1387">&#171;module&#187;</text><text fill="#000000" font-family="sans-serif" font-size="14" lengthAdjust="spacing" textLength="53.4297" x="394.5596" y="88.9639">mw_log</text><line style="stroke:#181818;stroke-width:0.5;" x1="164" x2="646.0488" y1="97.2656" y2="97.2656"/><line style="stroke:#181818;stroke-width:0.5;" x1="164" x2="646.0488" y1="105.2656" y2="105.2656"/><ellipse cx="174" cy="118.9141" fill="#84BE84" rx="3" ry="3" style="stroke:#038048;stroke-width:1;"/><text fill="#000000" font-family="sans-serif" font-size="14" lengthAdjust="spacing" textLength="458.0488" x="183" y="122.2607">set_logger(logger: &amp;'static dyn Log) : Result&lt;(), SetLoggerError&gt;</text><ellipse cx="174" cy="135.2109" fill="#84BE84" rx="3" ry="3" style="stroke:#038048;stroke-width:1;"/><text fill="#000000" font-family="sans-serif" font-size="14" lengthAdjust="spacing" textLength="250.0039" x="183" y="138.5576">set_max_level(level: LevelFilter) : ()</text><ellipse cx="174" cy="151.5078" fill="#84BE84" rx="3" ry="3" style="stroke:#038048;stroke-width:1;"/><text fill="#000000" font-family="sans-serif" font-size="14" lengthAdjust="spacing" textLength="168.2256" x="183" y="154.8545">max_level() : LevelFilter</text><ellipse cx="174" cy="167.8047" fill="#84BE84" rx="3" ry="3" style="stroke:#038048;stroke-width:1;"/><text fill="#000000" font-family="sans-serif" font-size="14" lengthAdjust="spacing" textLength="182.54" x="183" y="171.1514">logger() : &amp;'static dyn Log</text><text fill="#000000" font-family="sans-serif" font-size="14" lengthAdjust="spacing" textLength="4.4502" x="183" y="187.4482">&#160;</text><ellipse cx="174" cy="200.3984" fill="#84BE84" rx="3" ry="3" style="stroke:#038048;stroke-width:1;"/><text fill="#000000" font-family="sans-serif" font-size="14" lengthAdjust="spacing" textLength="254.666" x="183" y="203.7451">log!(target: &amp;str, level: Level, ...) : ()</text><ellipse cx="174" cy="216.6953" fill="#84BE84" rx="3" ry="3" style="stroke:#038048;stroke-width:1;"/><text fill="#000000" font-family="sans-serif" font-size="14" lengthAdjust="spacing" textLength="314.7402" x="183" y="220.042">log_enabled!(target: &amp;str, level: Level) : bool</text><ellipse cx="174" cy="232.9922" fill="#84BE84" rx="3" ry="3" style="stroke:#038048;stroke-width:1;"/><text fill="#000000" font-family="sans-serif" font-size="14" lengthAdjust="spacing" textLength="85.8936" x="183" y="236.3389">fatal!(...) : ()</text><ellipse cx="174" cy="249.2891" fill="#84BE84" rx="3" ry="3" style="stroke:#038048;stroke-width:1;"/><text fill="#000000" font-family="sans-serif" font-size="14" lengthAdjust="spacing" textLength="88.874" x="183" y="252.6357">error!(...) : ()</text><ellipse cx="174" cy="265.5859" fill="#84BE84" rx="3" ry="3" style="stroke:#038048;stroke-width:1;"/><text fill="#000000" font-family="sans-serif" font-size="14" lengthAdjust="spacing" textLength="89.0859" x="183" y="268.9326">warn!(...) : ()</text><ellipse cx="174" cy="281.8828" fill="#84BE84" rx="3" ry="3" style="stroke:#038048;stroke-width:1;"/><text fill="#000000" font-family="sans-serif" font-size="14" lengthAdjust="spacing" textLength="80.6846" x="183" y="285.2295">info!(...) : ()</text><ellipse cx="174" cy="298.1797" fill="#84BE84" rx="3" ry="3" style="stroke:#038048;stroke-width:1;"/><text fill="#000000" font-family="sans-serif" font-size="14" lengthAdjust="spacing" textLength="98.5742" x="183" y="301.5264">debug!(...) : ()</text><ellipse cx="174" cy="314.4766" fill="#84BE84" rx="3" ry="3" style="stroke:#038048;stroke-width:1;"/><text fill="#000000" font-family="sans-serif" font-size="14" lengthAdjust="spacing" textLength="90.5625" x="183" y="317.8232">trace!(...) : ()</text></g><!--class mw_log_macro--><g id="elem_mw_log_macro"><rect codeLine="38" fill="#F1F1F1" height="88.8594" id="mw_log_macro" rx="2.5" ry="2.5" style="stroke:#181818;stroke-width:0.5;" width="517.6611" x="288" y="425.5"/><ellipse cx="490.248" cy="445.6328" fill="#ADD1B2" rx="11" ry="11" style="stroke:#181818;stroke-width:1;"/><path d="M493.2168,451.2734 Q492.6387,451.5703 491.998,451.7109 Q491.3574,451.8672 490.6543,451.8672 Q488.1543,451.8672 486.8262,450.2266 Q485.5137,448.5703 485.5137,445.4453 Q485.5137,442.3203 486.8262,440.6641 Q488.1543,439.0078 490.6543,439.0078 Q491.3574,439.0078 491.998,439.1641 Q492.6543,439.3203 493.2168,439.6172 L493.2168,442.3359 Q492.5918,441.7578 491.998,441.4922 Q491.4043,441.2109 490.7793,441.2109 Q489.4355,441.2109 488.748,442.2891 Q488.0605,443.3516 488.0605,445.4453 Q488.0605,447.5391 488.748,448.6172 Q489.4355,449.6797 490.7793,449.6797 Q491.4043,449.6797 491.998,449.4141 Q492.5918,449.1328 493.2168,448.5547 L493.2168,451.2734 Z " fill="#000000"/><text fill="#000000" font-family="sans-serif" font-size="12" font-style="italic" lengthAdjust="spacing" textLength="59.7832" x="533.189" y="441.6387">&#171;module&#187;</text><text fill="#000000" font-family="sans-serif" font-size="14" lengthAdjust="spacing" textLength="104.665" x="510.748" y="457.4639">mw_log_macro</text><line style="stroke:#181818;stroke-width:0.5;" x1="289" x2="804.6611" y1="465.7656" y2="465.7656"/><line style="stroke:#181818;stroke-width:0.5;" x1="289" x2="804.6611" y1="473.7656" y2="473.7656"/><ellipse cx="299" cy="487.4141" fill="#84BE84" rx="3" ry="3" style="stroke:#038048;stroke-width:1;"/><text fill="#000000" font-family="sans-serif" font-size="14" lengthAdjust="spacing" textLength="471.8984" x="308" y="490.7607">mw_log_format_args!(format_string: &amp;str, args...) : Arguments&lt;'_&gt;</text><ellipse cx="299" cy="503.7109" fill="#84BE84" rx="3" ry="3" style="stroke:#038048;stroke-width:1;"/><text fill="#000000" font-family="sans-serif" font-size="14" lengthAdjust="spacing" textLength="491.6611" x="308" y="507.0576">mw_log_format_args_nl!(format_string: &amp;str, args...) : Arguments&lt;'_&gt;</text></g><!--class ScoreDebug--><g id="elem_ScoreDebug"><rect codeLine="44" fill="#F1F1F1" height="72.5625" id="ScoreDebug" rx="2.5" ry="2.5" style="stroke:#181818;stroke-width:0.5;" width="473.7334" x="876" y="433.5"/><ellipse cx="1060.3374" cy="453.6328" fill="#B4A7E5" rx="11" ry="11" style="stroke:#181818;stroke-width:1;"/><path d="M1056.2593,449.3984 L1056.2593,447.2422 L1063.6499,447.2422 L1063.6499,449.3984 L1061.1812,449.3984 L1061.1812,457.4766 L1063.6499,457.4766 L1063.6499,459.6328 L1056.2593,459.6328 L1056.2593,457.4766 L1058.728,457.4766 L1058.728,449.3984 L1056.2593,449.3984 Z " fill="#000000"/><text fill="#000000" font-family="sans-serif" font-size="12" font-style="italic" lengthAdjust="spacing" textLength="39.8438" x="1109.1948" y="449.6387">&#171;trait&#187;</text><ellipse cx="1085.8374" cy="460.1172" fill="#84BE84" rx="3" ry="3" style="stroke:#038048;stroke-width:1;"/><text fill="#000000" font-family="sans-serif" font-size="14" font-style="italic" lengthAdjust="spacing" textLength="85.5586" x="1091.8374" y="465.4639">ScoreDebug</text><line style="stroke:#181818;stroke-width:0.5;" x1="877" x2="1348.7334" y1="473.7656" y2="473.7656"/><line style="stroke:#181818;stroke-width:0.5;" x1="877" x2="1348.7334" y1="481.7656" y2="481.7656"/><ellipse cx="887" cy="495.4141" fill="#84BE84" rx="3" ry="3" style="stroke:#038048;stroke-width:1;"/><text fill="#000000" font-family="sans-serif" font-size="14" lengthAdjust="spacing" textLength="447.7334" x="896" y="498.7607">fmt(&amp;self, f: &amp;mut dyn ScoreWrite, spec: &amp;FormatSpec) : Result</text></g><!--class ScoreDisplay--><g id="elem_ScoreDisplay"><rect codeLine="48" fill="#F1F1F1" height="72.5625" id="ScoreDisplay" rx="2.5" ry="2.5" style="stroke:#181818;stroke-width:0.5;" width="473.7334" x="1385" y="433.5"/><ellipse cx="1566.5552" cy="453.6328" fill="#B4A7E5" rx="11" ry="11" style="stroke:#181818;stroke-width:1;"/><path d="M1562.4771,449.3984 L1562.4771,447.2422 L1569.8677,447.2422 L1569.8677,449.3984 L1567.3989,449.3984 L1567.3989,457.4766 L1569.8677,457.4766 L1569.8677,459.6328 L1562.4771,459.6328 L1562.4771,457.4766 L1564.9458,457.4766 L1564.9458,449.3984 L1562.4771,449.3984 Z " fill="#000000"/><text fill="#000000" font-family="sans-serif" font-size="12" font-style="italic" lengthAdjust="spacing" textLength="39.8438" x="1618.1948" y="449.6387">&#171;trait&#187;</text><ellipse cx="1592.0552" cy="460.1172" fill="#84BE84" rx="3" ry="3" style="stroke:#038048;stroke-width:1;"/><text fill="#000000" font-family="sans-serif" font-size="14" font-style="italic" lengthAdjust="spacing" textLength="91.123" x="1598.0552" y="465.4639">ScoreDisplay</text><line style="stroke:#181818;stroke-width:0.5;" x1="1386" x2="1857.7334" y1="473.7656" y2="473.7656"/><line style="stroke:#181818;stroke-width:0.5;" x1="1386" x2="1857.7334" y1="481.7656" y2="481.7656"/><ellipse cx="1396" cy="495.4141" fill="#84BE84" rx="3" ry="3" style="stroke:#038048;stroke-width:1;"/><text fill="#000000" font-family="sans-serif" font-size="14" lengthAdjust="spacing" textLength="447.7334" x="1405" y="498.7607">fmt(&amp;self, f: &amp;mut dyn ScoreWrite, spec: &amp;FormatSpec) : Result</text></g><!--class mw_log_fmt--><g id="elem_mw_log_fmt"><rect codeLine="52" fill="#F1F1F1" height="121.4531" id="mw_log_fmt" rx="2.5" ry="2.5" style="stroke:#181818;stroke-width:0.5;" width="495.834" x="876" y="615"/><ellipse cx="1077.4243" cy="635.1328" fill="#ADD1B2" rx="11" ry="11" style="stroke:#181818;stroke-width:1;"/><path d="M1080.3931,640.7734 Q1079.8149,641.0703 1079.1743,641.2109 Q1078.5337,641.3672 1077.8306,641.3672 Q1075.3306,641.3672 1074.0024,639.7266 Q1072.6899,638.0703 1072.6899,634.9453 Q1072.6899,631.8203 1074.0024,630.1641 Q1075.3306,628.5078 1077.8306,628.5078 Q1078.5337,628.5078 1079.1743,628.6641 Q1079.8306,628.8203 1080.3931,629.1172 L1080.3931,631.8359 Q1079.7681,631.2578 1079.1743,630.9922 Q1078.5806,630.7109 1077.9556,630.7109 Q1076.6118,630.7109 1075.9243,631.7891 Q1075.2368,632.8516 1075.2368,634.9453 Q1075.2368,637.0391 1075.9243,638.1172 Q1076.6118,639.1797 1077.9556,639.1797 Q1078.5806,639.1797 1079.1743,638.9141 Q1079.7681,638.6328 1080.3931,638.0547 L1080.3931,640.7734 Z " fill="#000000"/><text fill="#000000" font-family="sans-serif" font-size="12" font-style="italic" lengthAdjust="spacing" textLength="59.7832" x="1110.2754" y="631.1387">&#171;module&#187;</text><text fill="#000000" font-family="sans-serif" font-size="14" lengthAdjust="spacing" textLength="84.4854" x="1097.9243" y="646.9639">mw_log_fmt</text><line style="stroke:#181818;stroke-width:0.5;" x1="877" x2="1370.834" y1="655.2656" y2="655.2656"/><line style="stroke:#181818;stroke-width:0.5;" x1="877" x2="1370.834" y1="663.2656" y2="663.2656"/><ellipse cx="887" cy="676.9141" fill="#84BE84" rx="3" ry="3" style="stroke:#038048;stroke-width:1;"/><text fill="#000000" font-family="sans-serif" font-size="14" lengthAdjust="spacing" textLength="469.834" x="896" y="680.2607">write(output: &amp;mut dyn ScoreWrite, args: Arguments&lt;'_&gt;) : Result</text><text fill="#000000" font-family="sans-serif" font-size="14" lengthAdjust="spacing" textLength="4.4502" x="896" y="696.5576">&#160;</text><ellipse cx="887" cy="709.5078" fill="#84BE84" rx="3" ry="3" style="stroke:#038048;stroke-width:1;"/><text fill="#000000" font-family="sans-serif" font-size="14" lengthAdjust="spacing" textLength="339.6982" x="896" y="712.8545">score_write!(format_string: &amp;str, args...) : Result</text><ellipse cx="887" cy="725.8047" fill="#84BE84" rx="3" ry="3" style="stroke:#038048;stroke-width:1;"/><text fill="#000000" font-family="sans-serif" font-size="14" lengthAdjust="spacing" textLength="352.4609" x="896" y="729.1514">score_writeln!(format_string: &amp;str, args...) : Result</text></g><!--link mw_log to Level--><g id="link_mw_log_Level"><path codeLine="60" d="M174.69,325.09 C154.88,340.58 135.96,357.1 119,374.5 C112.98,380.67 107.32,387.6 102.07,394.81 " fill="transparent" id="mw_log-Level" style="stroke:#181818;stroke-width:1;"/></g><!--link mw_log to LevelFilter--><g id="link_mw_log_LevelFilter"><path codeLine="61" d="M304,325.23 C286.56,348.23 268.97,371.44 253.16,392.29 " fill="transparent" id="mw_log-LevelFilter" style="stroke:#181818;stroke-width:1;"/></g><!--link mw_log to mw_log_macro--><g id="link_mw_log_mw_log_macro"><path codeLine="62" d="M473.3,325.23 C491.84,361.4 510.63,398.06 524.6,425.3 " fill="transparent" id="mw_log-mw_log_macro" style="stroke:#181818;stroke-width:1;"/></g><!--link mw_log to mw_log_fmt--><g id="link_mw_log_mw_log_fmt"><path codeLine="63" d="M647.24,241.19 C719.98,268.24 792.26,310.04 837,374.5 C839.9488,378.75 842.2323,383.3848 843.9698,388.2455 C844.187,388.8531 844.3957,389.4642 844.596,390.0785 " fill="transparent" id="mw_log-mw_log_fmt" style="stroke:#181818;stroke-width:1;"/></g><!--SRC=[lLJRQjj047tNLwppaAonuWymnb1e3GL38IxaKQpbaH3TYzWTvKBmltTsfUZ6Eg65LWysepDpvd9cL8lyboY1ILEoxJOtgZOQDEvsx2rXzAn0DueTu0aauTxe8V_i1GhPMz-iDRQt7eNLlV5T5wOtliAfANlhfnKv1EkIp7FkAubWOvb_5CM_hIANmZccdhDsDCgS6mcJ4bOEqACbMDx-RTZjdKE1LSxEhveTJBba6_O0hf6uvSkK7G4FmJCKkPjIAV6IITyr3x-RyGWy3ryE_eElHqQEWqjNcSVdLIKJhmL7OKj0ydDeKpREdhBrUZrFJZ4PQ76ISFuereUTZ1cKMHLUg0MFK8AVHnHv9W6ZG4LYHe6p5pQAe1TvZaJq9YboQwwethaKnYg16NNl5hmpQ0ILBjzduQ4krHTRDehkoctlijr7L9cMVyFMzL1trtppJgpmPbnwfMb32fe1E-R6GhW0wfB6Kk6aoLOjXVpMWInILb0Lgi6mFo7qqLO8ANCrv0JjGy57CePzxxakoVK2AbTByVe_IvZ8JFHnaTlDymcuQR1ky4foByfCZr7wAPtpSLaW_LpYMGDp0gd_cE8oNfJkitP_trvgxDteSp8Wu_E8GpJIX98alm40]--></g></svg>