<svg xmlns="http://www.w3.org/2000/svg" xmlns:xlink="http://www.w3.org/1999/xlink" contentStyleType="text/css" data-diagram-type="SEQUENCE" height="549px" preserveAspectRatio="none" style="width:737px;height:549px;background:#FFFFFF;" version="1.1" viewBox="0 0 737 549" width="737px" zoomAndPan="magnify"><defs/><g><rect fill="transparent" height="75.3984" style="stroke:#000000;stroke-width:1.5;" width="302.0005" x="227.4746" y="82.4297"/><rect fill="transparent" height="75.3984" style="stroke:#000000;stroke-width:1.5;" width="302.0005" x="227.4746" y="171.8281"/><rect fill="transparent" height="177.6016" style="stroke:#000000;stroke-width:1.5;" width="720.6479" x="10" y="319.4922"/><g><title>User</title><rect fill="transparent" height="477.7969" width="8" x="38.9551" y="36.2969"/><line style="stroke:#181818;stroke-width:0.5;stroke-dasharray:5.0,5.0;" x1="42" x2="42" y1="36.2969" y2="514.0938"/></g><g><title>`log!` macro</title><rect fill="transparent" height="477.7969" width="8" x="285.2944" y="36.2969"/><line style="stroke:#181818;stroke-width:0.5;stroke-dasharray:5.0,5.0;" x1="288.4746" x2="288.4746" y1="36.2969" y2="514.0938"/></g><g><title>mw_log</title><rect fill="transparent" height="477.7969" width="8" x="481.7603" y="36.2969"/><line style="stroke:#181818;stroke-width:0.5;stroke-dasharray:5.0,5.0;" x1="485.0454" x2="485.0454" y1="36.2969" y2="514.0938"/></g><g><title>mw_log_macro</title><rect fill="transparent" height="477.7969" width="8" x="584.8076" y="36.2969"/><line style="stroke:#181818;stroke-width:0.5;stroke-dasharray:5.0,5.0;" x1="588.4751" x2="588.4751" y1="36.2969" y2="514.0938"/></g><g><title>Logger</title><rect fill="transparent" height="477.7969" width="8" x="685.394" y="36.2969"/><line style="stroke:#181818;stroke-width:0.5;stroke-dasharray:5.0,5.0;" x1="689.1401" x2="689.1401" y1="36.2969" y2="514.0938"/></g><rect fill="#E2E2F0" height="30.2969" rx="2.5" ry="2.5" style="stroke:#181818;stroke-width:0.5;" width="45.9102" x="20" y="5"/><text fill="#000000" font-family="sans-serif" font-size="14" lengthAdjust="spacing" textLength="31.9102" x="27" y="24.9951">User</text><rect fill="#E2E2F0" height="30.2969" rx="2.5" ry="2.5" style="stroke:#181818;stroke-width:0.5;" width="45.9102" x="20" y="513.0938"/><text fill="#000000" font-family="sans-serif" font-size="14" lengthAdjust="spacing" textLength="31.9102" x="27" y="533.0889">User</text><rect fill="#E2E2F0" height="30.2969" rx="2.5" ry="2.5" style="stroke:#181818;stroke-width:0.5;" width="103.6396" x="237.4746" y="5"/><text fill="#000000" font-family="sans-serif" font-size="14" lengthAdjust="spacing" textLength="89.6396" x="244.4746" y="24.9951">`log!` macro</text><rect fill="#E2E2F0" height="30.2969" rx="2.5" ry="2.5" style="stroke:#181818;stroke-width:0.5;" width="103.6396" x="237.4746" y="513.0938"/><text fill="#000000" font-family="sans-serif" font-size="14" lengthAdjust="spacing" textLength="89.6396" x="244.4746" y="533.0889">`log!` macro</text><rect fill="#E2E2F0" height="30.2969" rx="2.5" ry="2.5" style="stroke:#181818;stroke-width:0.5;" width="67.4297" x="452.0454" y="5"/><text fill="#000000" font-family="sans-serif" font-size="14" lengthAdjust="spacing" textLength="53.4297" x="459.0454" y="24.9951">mw_log</text><rect fill="#E2E2F0" height="30.2969" rx="2.5" ry="2.5" style="stroke:#181818;stroke-width:0.5;" width="67.4297" x="452.0454" y="513.0938"/><text fill="#000000" font-family="sans-serif" font-size="14" lengthAdjust="spacing" textLength="53.4297" x="459.0454" y="533.0889">mw_log</text><rect fill="#E2E2F0" height="30.2969" rx="2.5" ry="2.5" style="stroke:#181818;stroke-width:0.5;" width="118.665" x="529.4751" y="5"/><text fill="#000000" font-family="sans-serif" font-size="14" lengthAdjust="spacing" textLength="104.665" x="536.4751" y="24.9951">mw_log_macro</text><rect fill="#E2E2F0" height="30.2969" rx="2.5" ry="2.5" style="stroke:#181818;stroke-width:0.5;" width="118.665" x="529.4751" y="513.0938"/><text fill="#000000" font-family="sans-serif" font-size="14" lengthAdjust="spacing" textLength="104.665" x="536.4751" y="533.0889">mw_log_macro</text><rect fill="#E2E2F0" height="30.2969" rx="2.5" ry="2.5" style="stroke:#181818;stroke-width:0.5;" width="62.5078" x="658.1401" y="5"/><text fill="#000000" font-family="sans-serif" font-size="14" lengthAdjust="spacing" textLength="48.5078" x="665.1401" y="24.9951">Logger</text><rect fill="#E2E2F0" height="30.2969" rx="2.5" ry="2.5" style="stroke:#181818;stroke-width:0.5;" width="62.5078" x="658.1401" y="513.0938"/><text fill="#000000" font-family="sans-serif" font-size="14" lengthAdjust="spacing" textLength="48.5078" x="665.1401" y="533.0889">Logger</text><polygon fill="#181818" points="277.2944,63.4297,287.2944,67.4297,277.2944,71.4297,281.2944,67.4297" style="stroke:#181818;stroke-width:1;"/><line style="stroke:#181818;stroke-width:1;" x1="42.9551" x2="283.2944" y1="67.4297" y2="67.4297"/><text fill="#000000" font-family="sans-serif" font-size="13" lengthAdjust="spacing" textLength="176.7124" x="49.9551" y="62.3638">Log message with log level</text><path d="M227.4746,82.4297 L291.9175,82.4297 L291.9175,89.5625 L281.9175,99.5625 L227.4746,99.5625 L227.4746,82.4297 " fill="#EEEEEE" style="stroke:#000000;stroke-width:1.5;"/><rect fill="transparent" height="75.3984" style="stroke:#000000;stroke-width:1.5;" width="302.0005" x="227.4746" y="82.4297"/><text fill="#000000" font-family="sans-serif" font-size="13" font-weight="bold" lengthAdjust="spacing" textLength="19.4429" x="242.4746" y="95.4966">alt</text><text fill="#000000" font-family="sans-serif" font-size="11" font-weight="bold" lengthAdjust="spacing" textLength="161.3691" x="306.9175" y="94.6401">[no-user-provided-logger]</text><polygon fill="#181818" points="473.7603,116.6953,483.7603,120.6953,473.7603,124.6953,477.7603,120.6953" style="stroke:#181818;stroke-width:1;"/><line style="stroke:#181818;stroke-width:1;" x1="289.2944" x2="479.7603" y1="120.6953" y2="120.6953"/><text fill="#000000" font-family="sans-serif" font-size="13" lengthAdjust="spacing" textLength="112.4932" x="296.2944" y="115.6294">Get global logger</text><polygon fill="#181818" points="300.2944,145.8281,290.2944,149.8281,300.2944,153.8281,296.2944,149.8281" style="stroke:#181818;stroke-width:1;"/><line style="stroke:#181818;stroke-width:1;stroke-dasharray:2.0,2.0;" x1="294.2944" x2="484.7603" y1="149.8281" y2="149.8281"/><text fill="#000000" font-family="sans-serif" font-size="13" lengthAdjust="spacing" textLength="45.043" x="306.2944" y="144.7622">Logger</text><path d="M227.4746,171.8281 L291.9175,171.8281 L291.9175,178.9609 L281.9175,188.9609 L227.4746,188.9609 L227.4746,171.8281 " fill="#EEEEEE" style="stroke:#000000;stroke-width:1.5;"/><rect fill="transparent" height="75.3984" style="stroke:#000000;stroke-width:1.5;" width="302.0005" x="227.4746" y="171.8281"/><text fill="#000000" font-family="sans-serif" font-size="13" font-weight="bold" lengthAdjust="spacing" textLength="19.4429" x="242.4746" y="184.895">alt</text><text fill="#000000" font-family="sans-serif" font-size="11" font-weight="bold" lengthAdjust="spacing" textLength="160.1069" x="306.9175" y="184.0386">[no-user-provided-target]</text><polygon fill="#181818" points="473.7603,206.0938,483.7603,210.0938,473.7603,214.0938,477.7603,210.0938" style="stroke:#181818;stroke-width:1;"/><line style="stroke:#181818;stroke-width:1;" x1="289.2944" x2="479.7603" y1="210.0938" y2="210.0938"/><text fill="#000000" font-family="sans-serif" font-size="13" lengthAdjust="spacing" textLength="172.4658" x="296.2944" y="205.0278">Get module path as target</text><polygon fill="#181818" points="300.2944,235.2266,290.2944,239.2266,300.2944,243.2266,296.2944,239.2266" style="stroke:#181818;stroke-width:1;"/><line style="stroke:#181818;stroke-width:1;stroke-dasharray:2.0,2.0;" x1="294.2944" x2="484.7603" y1="239.2266" y2="239.2266"/><text fill="#000000" font-family="sans-serif" font-size="13" lengthAdjust="spacing" textLength="80.958" x="306.2944" y="234.1606">Module path</text><polygon fill="#181818" points="473.7603,271.3594,483.7603,275.3594,473.7603,279.3594,477.7603,275.3594" style="stroke:#181818;stroke-width:1;"/><line style="stroke:#181818;stroke-width:1;" x1="289.2944" x2="479.7603" y1="275.3594" y2="275.3594"/><text fill="#000000" font-family="sans-serif" font-size="13" lengthAdjust="spacing" textLength="114.6196" x="296.2944" y="270.2935">Get max log level</text><polygon fill="#181818" points="300.2944,300.4922,290.2944,304.4922,300.2944,308.4922,296.2944,304.4922" style="stroke:#181818;stroke-width:1;"/><line style="stroke:#181818;stroke-width:1;stroke-dasharray:2.0,2.0;" x1="294.2944" x2="484.7603" y1="304.4922" y2="304.4922"/><text fill="#000000" font-family="sans-serif" font-size="13" lengthAdjust="spacing" textLength="85.8711" x="306.2944" y="299.4263">Max log level</text><path d="M10,319.4922 L74.4429,319.4922 L74.4429,326.625 L64.4429,336.625 L10,336.625 L10,319.4922 " fill="#EEEEEE" style="stroke:#000000;stroke-width:1.5;"/><rect fill="transparent" height="177.6016" style="stroke:#000000;stroke-width:1.5;" width="720.6479" x="10" y="319.4922"/><text fill="#000000" font-family="sans-serif" font-size="13" font-weight="bold" lengthAdjust="spacing" textLength="19.4429" x="25" y="332.5591">alt</text><text fill="#000000" font-family="sans-serif" font-size="11" font-weight="bold" lengthAdjust="spacing" textLength="143.3169" x="89.4429" y="331.7026">[log-level-check-failed]</text><polygon fill="#181818" points="53.9551,353.7578,43.9551,357.7578,53.9551,361.7578,49.9551,357.7578" style="stroke:#181818;stroke-width:1;"/><line style="stroke:#181818;stroke-width:1;stroke-dasharray:2.0,2.0;" x1="47.9551" x2="288.2944" y1="357.7578" y2="357.7578"/><text fill="#000000" font-family="sans-serif" font-size="13" lengthAdjust="spacing" textLength="222.3394" x="59.9551" y="352.6919">Do not log, return control to caller</text><line style="stroke:#000000;stroke-width:1;stroke-dasharray:2.0,2.0;" x1="10" x2="730.6479" y1="366.7578" y2="366.7578"/><text fill="#000000" font-family="sans-serif" font-size="11" font-weight="bold" lengthAdjust="spacing" textLength="151.959" x="15" y="376.9683">[log-level-check-passed]</text><polygon fill="#181818" points="576.8076,397.6953,586.8076,401.6953,576.8076,405.6953,580.8076,401.6953" style="stroke:#181818;stroke-width:1;"/><line style="stroke:#181818;stroke-width:1;" x1="289.2944" x2="582.8076" y1="401.6953" y2="401.6953"/><text fill="#000000" font-family="sans-serif" font-size="13" lengthAdjust="spacing" textLength="121.2085" x="296.2944" y="396.6294">Format arguments</text><polygon fill="#181818" points="300.2944,426.8281,290.2944,430.8281,300.2944,434.8281,296.2944,430.8281" style="stroke:#181818;stroke-width:1;"/><line style="stroke:#181818;stroke-width:1;stroke-dasharray:2.0,2.0;" x1="294.2944" x2="587.8076" y1="430.8281" y2="430.8281"/><text fill="#000000" font-family="sans-serif" font-size="13" lengthAdjust="spacing" textLength="105.8916" x="306.2944" y="425.7622">Operation result</text><polygon fill="#181818" points="677.394,455.9609,687.394,459.9609,677.394,463.9609,681.394,459.9609" style="stroke:#181818;stroke-width:1;"/><line style="stroke:#181818;stroke-width:1;" x1="289.2944" x2="683.394" y1="459.9609" y2="459.9609"/><text fill="#000000" font-family="sans-serif" font-size="13" lengthAdjust="spacing" textLength="167.2354" x="296.2944" y="454.895">Log formatted arguments</text><polygon fill="#181818" points="53.9551,485.0938,43.9551,489.0938,53.9551,493.0938,49.9551,489.0938" style="stroke:#181818;stroke-width:1;"/><line style="stroke:#181818;stroke-width:1;stroke-dasharray:2.0,2.0;" x1="47.9551" x2="688.394" y1="489.0938" y2="489.0938"/><text fill="#000000" font-family="sans-serif" font-size="13" lengthAdjust="spacing" textLength="150.4268" x="59.9551" y="484.0278">Return control to caller</text><!--SRC=[XLBDJiCm3BxtASpEv0Lss0d11OI4jFDcKg-hIECeSJSU7o-jr7Ibq5DSV_v-uWICqjese1VOx1F53M02jCAn2cNlwBXvE4A7DdB6Q7t8rHpNNG_QoOZX-5lxCD6KF-RGLswQqO_BnwhAli3i9d7OWkAWevIm8RYsShurmT65d0uu0S-crs0cHBwqDTLcP0Fz9Xub7Qmeumi9D8u_qK617TjcANz3aAzNv0HZG_AFNCTrxmW2gdyDNCoioBvD0uFs7zpuNTp96jyCb9DeQN9fx9dibpbXwwY-3w8ymrgsyCIQFiyzGYJfemVBNY8x40QBpjsMI2xHWZjWIalktUnvgC8pnmu5z7RwZhoaueOAF-N4Uw28qh9NHwbtKYqrXXsFB-cK5OJgEv4HLCRzM8-e2_a1]--></g></svg>